<svg width="239" height="30" viewBox="0 0 239 30" fill="none" xmlns="http://www.w3.org/2000/svg">
<path d="M9.08 12.92H21.4V20.04H9.08V12.92ZM9.72 29H0.28V0.999998H23.04V8.12H9.72V29ZM26.0222 29V0.999998H35.4622V29H26.0222ZM36.9666 29L49.2066 0.999998H58.4866L70.7266 29H60.9666L51.9266 5.48H55.6066L46.5666 29H36.9666ZM44.2466 24.12L46.6466 17.32H59.5266L61.9266 24.12H44.2466ZM72.2331 29V0.999998H85.7131C88.3265 0.999998 90.5798 1.42666 92.4731 2.28C94.3931 3.13333 95.8731 4.36 96.9131 5.96C97.9531 7.53333 98.4731 9.4 98.4731 11.56C98.4731 13.72 97.9531 15.5867 96.9131 17.16C95.8731 18.7333 94.3931 19.96 92.4731 20.84C90.5798 21.6933 88.3265 22.12 85.7131 22.12H77.4731L81.6731 18.08V29H72.2331ZM81.6731 19.12L77.4731 14.84H85.1131C86.4198 14.84 87.3798 14.5467 87.9931 13.96C88.6331 13.3733 88.9531 12.5733 88.9531 11.56C88.9531 10.5467 88.6331 9.74667 87.9931 9.16C87.3798 8.57333 86.4198 8.28 85.1131 8.28H77.4731L81.6731 4V19.12Z" fill="#F21667"/>
<path d="M101.569 29V0.999998H109.329L120.529 19.28H116.449L127.329 0.999998H135.089L135.169 29H126.569L126.489 13.96H127.849L120.409 26.48H116.249L108.489 13.96H110.169V29H101.569ZM153.133 29.64C148.84 29.64 145.493 28.48 143.093 26.16C140.693 23.84 139.493 20.5867 139.493 16.4V0.999998H148.933V16.12C148.933 18.2533 149.32 19.7733 150.093 20.68C150.866 21.56 151.906 22 153.213 22C154.546 22 155.586 21.56 156.333 20.68C157.106 19.7733 157.493 18.2533 157.493 16.12V0.999998H166.773V16.4C166.773 20.5867 165.573 23.84 163.173 26.16C160.773 28.48 157.426 29.64 153.133 29.64ZM181.54 29.64C179.194 29.64 176.927 29.3733 174.74 28.84C172.554 28.3067 170.754 27.6133 169.34 26.76L172.38 19.88C173.714 20.6533 175.194 21.28 176.82 21.76C178.474 22.2133 180.074 22.44 181.62 22.44C182.527 22.44 183.234 22.3867 183.74 22.28C184.274 22.1467 184.66 21.9733 184.9 21.76C185.14 21.52 185.26 21.24 185.26 20.92C185.26 20.4133 184.98 20.0133 184.42 19.72C183.86 19.4267 183.114 19.1867 182.18 19C181.274 18.7867 180.274 18.5733 179.18 18.36C178.087 18.12 176.98 17.8133 175.86 17.44C174.767 17.0667 173.754 16.5733 172.82 15.96C171.914 15.3467 171.18 14.5467 170.62 13.56C170.06 12.5467 169.78 11.2933 169.78 9.8C169.78 8.06667 170.26 6.49333 171.22 5.08C172.207 3.64 173.66 2.49333 175.58 1.64C177.527 0.786666 179.94 0.359999 182.82 0.359999C184.714 0.359999 186.58 0.559999 188.42 0.959999C190.26 1.36 191.914 1.97333 193.38 2.8L190.54 9.64C189.154 8.94666 187.807 8.42667 186.5 8.08C185.22 7.73333 183.967 7.56 182.74 7.56C181.834 7.56 181.114 7.64 180.58 7.8C180.047 7.96 179.66 8.17333 179.42 8.44C179.207 8.70667 179.1 9 179.1 9.32C179.1 9.8 179.38 10.1867 179.94 10.48C180.5 10.7467 181.234 10.9733 182.14 11.16C183.074 11.3467 184.087 11.5467 185.18 11.76C186.3 11.9733 187.407 12.2667 188.5 12.64C189.594 13.0133 190.594 13.5067 191.5 14.12C192.434 14.7333 193.18 15.5333 193.74 16.52C194.3 17.5067 194.58 18.7333 194.58 20.2C194.58 21.9067 194.087 23.48 193.1 24.92C192.14 26.3333 190.7 27.48 188.78 28.36C186.86 29.2133 184.447 29.64 181.54 29.64ZM197.389 29V0.999998H206.829V29H197.389ZM225.854 29.64C223.614 29.64 221.534 29.2933 219.614 28.6C217.72 27.88 216.067 26.8667 214.654 25.56C213.267 24.2533 212.187 22.7067 211.414 20.92C210.64 19.1333 210.254 17.16 210.254 15C210.254 12.84 210.64 10.8667 211.414 9.08C212.187 7.29333 213.267 5.74667 214.654 4.44C216.067 3.13333 217.72 2.13333 219.614 1.44C221.534 0.719999 223.614 0.359999 225.854 0.359999C228.6 0.359999 231.027 0.839999 233.134 1.8C235.267 2.76 237.027 4.14666 238.414 5.96L232.454 11.28C231.627 10.24 230.707 9.44 229.694 8.88C228.707 8.29333 227.587 8 226.334 8C225.347 8 224.454 8.16 223.654 8.48C222.854 8.8 222.16 9.26667 221.574 9.88C221.014 10.4933 220.574 11.24 220.254 12.12C219.934 12.9733 219.774 13.9333 219.774 15C219.774 16.0667 219.934 17.04 220.254 17.92C220.574 18.7733 221.014 19.5067 221.574 20.12C222.16 20.7333 222.854 21.2 223.654 21.52C224.454 21.84 225.347 22 226.334 22C227.587 22 228.707 21.72 229.694 21.16C230.707 20.5733 231.627 19.76 232.454 18.72L238.414 24.04C237.027 25.8267 235.267 27.2133 233.134 28.2C231.027 29.16 228.6 29.64 225.854 29.64Z" fill="white"/>
</svg>
